<?xml version="1.0" encoding="UTF-8"?>
<svg width="32px" height="32px" viewBox="0 0 32 32" version="1.1" xmlns="http://www.w3.org/2000/svg" xmlns:xlink="http://www.w3.org/1999/xlink">
    <title>cart_empty</title>
    <g id="Page-1" stroke="none" stroke-width="1" fill="none" fill-rule="evenodd">
        <g id="cart_empty">
            <polygon id="bounding-box-24px" points="0 32 32 32 32 0 0 0"></polygon>
            <path d="M18.976,11.5156 C19.005,11.2196 19.27,10.9996 19.568,10.9996 L20.372,10.9996 C20.732,10.9996 21.003,11.3176 20.969,11.6766 C20.671,14.8486 18.263,15.9996 16,15.9996 C13.738,15.9996 11.33,14.8486 11.032,11.6766 C10.997,11.3176 11.269,10.9996 11.629,10.9996 L12.433,10.9996 C12.731,10.9996 12.996,11.2196 13.025,11.5156 C13.191,13.1646 14.19,13.9996 16,13.9996 C17.811,13.9996 18.81,13.1646 18.976,11.5156 L18.976,11.5156 Z M21,25.9996 L11,25.9996 C9.01,25.9996 8,24.9906 7.997,23.0716 L9,8.9996 C9,7.0096 10.01,5.9996 12,5.9996 L20,5.9996 C21.991,5.9996 23,7.0096 23.003,9.0716 L24,23.0346 C23.989,25.0026 22.98,25.9996 21,25.9996 L21,25.9996 Z M25,8.9996 C25,5.3136 22.417,3.9996 20,3.9996 L12,3.9996 C9.583,3.9996 7,5.3136 7.003,8.9286 L6,22.9996 C6,26.6866 8.583,27.9996 11,27.9996 L21,27.9996 C23.417,27.9996 26,26.6866 26,22.9996 L25,8.9996 Z" id="Icon" fill="#5F2EFF"></path>
        </g>
    </g>
</svg>