<?xml version="1.0" encoding="UTF-8"?>
<svg width="24px" height="24px" viewBox="0 0 24 24" version="1.1" xmlns="http://www.w3.org/2000/svg" xmlns:xlink="http://www.w3.org/1999/xlink">
    <title>close</title>
    <g id="Page-1" stroke="none" stroke-width="1" fill="none" fill-rule="evenodd">
        <g id="close">
            <polygon id="bounding-box-24px" points="0 24 24 24 24 0 0 0"></polygon>
            <path d="M19.2827,5.2827 L18.7177,4.7177 C18.4827,4.4827 18.1027,4.4827 17.8687,4.7177 L11.9997,10.5857 L6.1317,4.7177 C5.8967,4.4827 5.5167,4.4827 5.2827,4.7177 L4.7177,5.2827 C4.4827,5.5167 4.4827,5.8967 4.7177,6.1317 L10.5857,11.9997 L4.7177,17.8687 C4.4827,18.1027 4.4827,18.4827 4.7177,18.7177 L5.2827,19.2827 C5.5167,19.5167 5.8967,19.5167 6.1317,19.2827 L11.9997,13.4137 L17.8687,19.2827 C18.1027,19.5167 18.4827,19.5167 18.7177,19.2827 L19.2827,18.7177 C19.5167,18.4827 19.5167,18.1027 19.2827,17.8687 L13.4137,11.9997 L19.2827,6.1317 C19.5167,5.8967 19.5167,5.5167 19.2827,5.2827" id="Icon" fill="#5F2EFF"></path>
        </g>
    </g>
</svg>