<?xml version="1.0" encoding="UTF-8"?>
<svg width="24px" height="24px" viewBox="0 0 24 24" version="1.1" xmlns="http://www.w3.org/2000/svg" xmlns:xlink="http://www.w3.org/1999/xlink">
    <title>shipping</title>
    <g id="Page-1" stroke="none" stroke-width="1" fill="none" fill-rule="evenodd">
        <g id="shipping">
            <polygon id="bounding-box-24px" points="0 24 24 24 24 0 0 0"></polygon>
            <path d="M10,11.6001 L10,12.4001 C10,12.7311 9.731,13.0001 9.4,13.0001 L2.6,13.0001 C2.269,13.0001 2,12.7311 2,12.4001 L2,11.6001 C2,11.2681 2.269,11.0001 2.6,11.0001 L9.4,11.0001 C9.731,11.0001 10,11.2681 10,11.6001 L10,11.6001 Z M12,8.6001 L12,9.4001 C12,9.7311 11.731,10.0001 11.4,10.0001 L6.6,10.0001 C6.269,10.0001 6,9.7311 6,9.4001 L6,8.6001 C6,8.2681 6.269,8.0001 6.6,8.0001 L11.4,8.0001 C11.731,8.0001 12,8.2681 12,8.6001 L12,8.6001 Z M19.24,15.9121 C18.835,15.0801 17.987,14.5001 17,14.5001 C15.977,14.5001 15.099,15.1191 14.712,16.0001 L14.28,16.0001 L15.531,11.0001 L17.93,11.0001 C18.265,11.0001 18.576,11.1661 18.762,11.4451 L19.923,13.1861 L19.24,15.9121 Z M17,17.5001 C16.725,17.5001 16.5,17.2761 16.5,17.0001 C16.5,16.7241 16.725,16.5001 17,16.5001 C17.275,16.5001 17.5,16.7241 17.5,17.0001 C17.5,17.2761 17.275,17.5001 17,17.5001 L17,17.5001 Z M21.586,12.0751 L20.426,10.3351 C19.869,9.5011 18.933,9.0001 17.93,9.0001 L16.031,9.0001 L16.66,6.4841 C16.81,5.8821 16.677,5.2571 16.295,4.7681 C15.913,4.2801 15.339,4.0001 14.719,4.0001 L8.6,4.0001 C8.269,4.0001 8,4.2681 8,4.6001 L8,5.4001 C8,5.7311 8.269,6.0001 8.6,6.0001 L14.72,6.0001 L12.22,16.0001 L9.6,16.0001 C9.269,16.0001 9,16.2681 9,16.6001 L9,17.4001 C9,17.7311 9.269,18.0001 9.6,18.0001 L14.712,18.0001 C15.099,18.8811 15.977,19.5001 17,19.5001 C18.025,19.5001 18.906,18.8791 19.291,17.9941 C20.18,17.9611 20.942,17.3531 21.159,16.4851 L21.862,13.6721 C21.999,13.1241 21.898,12.5441 21.586,12.0751 L21.586,12.0751 Z M5,17.5001 C4.725,17.5001 4.5,17.2761 4.5,17.0001 C4.5,16.7241 4.725,16.5001 5,16.5001 C5.275,16.5001 5.5,16.7241 5.5,17.0001 C5.5,17.2761 5.275,17.5001 5,17.5001 L5,17.5001 Z M5,14.5001 C3.621,14.5001 2.5,15.6211 2.5,17.0001 C2.5,18.3781 3.621,19.5001 5,19.5001 C6.379,19.5001 7.5,18.3781 7.5,17.0001 C7.5,15.6211 6.379,14.5001 5,14.5001 L5,14.5001 Z" id="Icon" fill="#5F2EFF"></path>
        </g>
    </g>
</svg>