<?xml version="1.0" encoding="UTF-8"?>
<svg width="54px" height="48px" viewBox="0 0 54 48" version="1.1" xmlns="http://www.w3.org/2000/svg" xmlns:xlink="http://www.w3.org/1999/xlink">
    <title>check</title>
    <g id="Page-1" stroke="none" stroke-width="1" fill="none" fill-rule="evenodd">
        <path d="M24.270537,33.1631888 C24.8343322,33.0876601 25.2982591,32.6817813 25.4484156,32.1347272 C25.5057867,31.9286114 31.3307258,11.5549075 53.6891707,5.28037428 C53.9129889,5.2175513 54.0461466,4.98955329 53.985234,4.76579055 L53.4667691,2.85921902 C53.4051483,2.63122101 53.1629147,2.49569279 52.9348468,2.55992752 C34.0321263,7.85117528 26.2969415,22.1825791 23.7541969,28.4380537 L16.3101175,15.8819285 C16.1904172,15.6800479 15.9297682,15.6136955 15.7271986,15.7329886 L14.0202308,16.7374504 C13.8183695,16.8567434 13.7510823,17.1172117 13.8707826,17.3183865 L22.8624656,32.4827242 C23.1188649,32.9161322 23.5849167,33.1758946 24.0807165,33.1758946 C24.1437539,33.1758946 24.2067913,33.1716593 24.270537,33.1631888 M24.0814248,48 C10.0488746,48 -1.21852941,35.9761053 0.10596427,21.7237596 C1.23780433,9.54245458 11.663057,0.0703022749 23.9383511,0 C29.3156538,-0.0306380172 34.3947684,1.65922953 38.6480222,4.8857895 C38.8371343,5.03049411 38.8704238,5.30437407 38.7223921,5.49072537 L37.493517,7.04365294 C37.3504433,7.22435724 37.0912109,7.25400404 36.9070567,7.11494644 C33.4137931,4.47214606 29.2908638,3.00321776 24.9122435,2.83874861 C13.5903016,2.41310528 3.74938433,11.1024409 2.89519214,22.3618717 C1.87101147,35.8603417 13.6313821,46.9807148 27.3487453,44.9315563 C37.655006,43.3920404 45.3377777,34.3695312 45.3299865,23.9832692 C45.3271534,20.7538858 44.6181597,17.6621481 43.2192961,14.7857028 C43.1180113,14.578881 43.1987558,14.3304126 43.4048668,14.2266488 L45.1720389,13.330892 C45.3852328,13.2235988 45.6501315,13.3097157 45.7542495,13.5235962 C47.3528496,16.7995675 48.1631281,20.3225954 48.1631281,24.0002103 C48.1631281,37.2339767 37.3603593,48 24.0814248,48" id="check" fill="#00B856"></path>
    </g>
</svg>