<?xml version="1.0" encoding="UTF-8"?>
<svg width="24px" height="24px" viewBox="0 0 24 24" version="1.1" xmlns="http://www.w3.org/2000/svg" xmlns:xlink="http://www.w3.org/1999/xlink">
    <title>delete</title>
    <g id="Page-1" stroke="none" stroke-width="1" fill="none" fill-rule="evenodd">
        <g id="delete">
            <polygon id="bounding-box-24px" points="0 24 24 24 24 0 0 0"></polygon>
            <path d="M15,10.6001 L15,17.4001 C15,17.7311 14.731,18.0001 14.4,18.0001 L13.6,18.0001 C13.269,18.0001 13,17.7311 13,17.4001 L13,10.6001 C13,10.2681 13.269,10.0001 13.6,10.0001 L14.4,10.0001 C14.731,10.0001 15,10.2681 15,10.6001 L15,10.6001 Z M11,10.6001 L11,17.4001 C11,17.7311 10.731,18.0001 10.4,18.0001 L9.6,18.0001 C9.269,18.0001 9,17.7311 9,17.4001 L9,10.6001 C9,10.2681 9.269,10.0001 9.6,10.0001 L10.4,10.0001 C10.731,10.0001 11,10.2681 11,10.6001 L11,10.6001 Z M17.6,10.0001 C17.269,10.0001 17,10.2681 17,10.6001 L17,18.0001 C17,18.5531 16.939,19.5211 16.531,19.8021 C16.242,20.0001 15.653,19.9961 15,20.0001 L8.929,20.0001 C8.335,19.9961 7.757,20.0001 7.469,19.8021 C7.061,19.5211 7,18.5531 7,18.0001 L7,10.6001 C7,10.2681 6.731,10.0001 6.4,10.0001 L6,10.0001 C6,9.4471 6.061,8.4781 6.469,8.1981 C6.758,7.9991 7.328,8.0001 8,8.0001 L16.071,8.0001 C16.677,7.9911 17.242,7.9991 17.531,8.1981 C17.939,8.4781 18,9.4471 18,10.0001 L17.6,10.0001 Z M10.469,4.1981 C10.757,3.9991 11.331,3.9881 11.929,4.0001 L12.071,4.0001 C12.662,3.9901 13.243,3.9991 13.531,4.1981 C13.939,4.4781 14,5.4471 14,6.0001 L10,6.0001 C10,5.4471 10.061,4.4781 10.469,4.1981 L10.469,4.1981 Z M18.665,6.5501 C17.864,5.9991 16.905,6.0031 16,6.0001 C16,4.2971 15.563,3.1681 14.665,2.5501 C13.864,1.9991 12.925,2.0011 12.07,2.0001 L11.93,2.0001 C11.081,1.9981 10.135,1.9991 9.335,2.5501 C8.437,3.1681 8,4.2971 8,6.0001 L7.93,6.0001 C7.068,5.9931 6.135,5.9991 5.335,6.5501 C4.56,7.0831 4.129,7.9971 4.024,9.3321 C3.997,9.6881 4.266,10.0001 4.623,10.0001 L5,10.0001 L5,18.0001 C5,19.7031 5.437,20.8311 6.335,21.4501 C7.136,22.0001 8.091,22.0001 9,22.0001 L15.07,22.0001 L15.139,22.0001 C15.963,22.0001 16.886,21.9861 17.665,21.4501 C18.563,20.8311 19,19.7031 19,18.0001 L19,10.0001 L19.377,10.0001 C19.734,10.0001 20.003,9.6881 19.976,9.3321 C19.871,7.9971 19.44,7.0831 18.665,6.5501 L18.665,6.5501 Z" id="Icon" fill="#6C6B76"></path>
        </g>
    </g>
</svg>