<?xml version="1.0" encoding="UTF-8"?>
<svg
    width="100%"
    height="100%"
    viewBox="0 0 622 186"
    xmlns="http://www.w3.org/2000/svg"
  >
    <path
        d="M224.557 108.592c17.29 0 21.614-3.521 21.614-12.184 0-8.121-6.026-12.047-16.899-12.047h-9.387c-1.689 0-3.057 1.414-3.057 3.16v17.911c0 1.745 1.368 3.16 3.057 3.16h4.672zm3.276-38.985c8.644 0 14.539-3.385 14.539-11.1s-4.584-11.099-19.124-11.099h-3.363c-1.689 0-3.057 1.415-3.057 3.16v15.88c0 1.745 1.368 3.16 3.057 3.16h7.948zM196 32.16c0-1.745 1.369-3.159 3.057-3.159h24.583c27.379 0 39.56 8.662 39.56 24.905 0 10.018-5.633 16.243-14.279 19.492v.27C261.103 77.322 267 85.714 267 97.357 267 115.764 253.244 127 224.165 127h-25.108c-1.688 0-3.057-1.414-3.057-3.16V32.16zm116.386 75.249v-5.281c0-1.539-1.068-2.863-2.525-3.1a28.851 28.851 0 0 0-4.417-.351c-5.016 0-10.029 1.611-10.029 6.71 0 4.298 3.6 6.58 8.1 6.58 2.605 0 5.134-.735 7.219-1.758 1.026-.504 1.652-1.616 1.652-2.8zm-28.928 15.297c-4.628-3.356-7.458-8.591-7.458-15.437 0-7.25 3.215-12.753 7.714-15.976 4.887-3.491 11.187-4.699 17.745-4.699 3.727 0 7.456.402 10.927 1.208V85.25c0-3.221-1.027-5.638-2.443-6.98-1.8-1.744-5.144-2.819-9.771-2.819-5.245 0-10.137 1.329-14.359 3.167-1.981.861-4.156-.643-4.156-2.883V65.102c0-1.254.707-2.381 1.807-2.882 5.068-2.311 12.08-4.22 20.308-4.22 8.485 0 16.072 2.013 21.085 6.309 4.758 4.028 7.072 9.933 7.072 18.256v22.42c0 3.087 1.158 5.235 3.857 5.235h.031c1.728-.01 3.183 1.32 3.183 3.125v9.282c0 1.36-.83 2.567-2.067 2.987-2.042.695-4.613 1.119-7.318 1.119-5.143 0-10.157-1.477-13.629-5.236h-.257c-4.114 3.086-10.414 5.503-17.614 5.503-5.4 0-10.543-1.34-14.657-4.295zm72.477-63.874h12.869c1.621 0 2.935 1.448 2.935 3.234v5.913l.252.137C376.268 61.465 382.304 58 389.976 58c.432 0 .877.017 1.333.056 1.52.126 2.691 1.55 2.691 3.23v13.277c0 1.884-1.46 3.4-3.162 3.22a19.31 19.31 0 0 0-1.994-.107c-6.296 0-11.582 1.979-15.966 7.101-.5.587-.762 1.382-.762 2.187v36.802c0 1.786-1.314 3.234-2.936 3.234h-13.245c-1.62 0-2.935-1.448-2.935-3.234v-61.7c0-1.787 1.314-3.235 2.935-3.235zM412.001 24h13.54c1.658 0 3.002 1.409 3.002 3.147v61.566l.26.135 21.213-27.032a2.95 2.95 0 0 1 2.318-1.147h14.315c2.562 0 3.945 3.149 2.281 5.19l-18.39 22.563a3.268 3.268 0 0 0-.127 3.92l20.99 29.636c1.47 2.076.056 5.022-2.41 5.022h-15.63a2.959 2.959 0 0 1-2.444-1.32l-22.117-32.52-.26.137v30.556c0 1.738-1.343 3.147-3 3.147H412c-1.658 0-3.001-1.409-3.001-3.147V27.147c0-1.738 1.343-3.147 3.001-3.147zm149.088 35.509h13.675c1.706 0 3.09 1.433 3.09 3.202v2.973l.263.136c5.03-4.252 11.914-7.82 20.12-7.82 6.881 0 12.968 2.47 17.072 6.86C619.28 69.249 621 75.149 621 84.888v38.911c0 1.769-1.383 3.202-3.09 3.202h-13.938c-1.706 0-3.089-1.433-3.089-3.202v-35.48c0-5.077-.661-7.545-2.25-9.466-1.721-2.057-4.102-2.88-6.883-2.88-4.54 0-8.874 2.12-12.285 4.593a3.271 3.271 0 0 0-1.348 2.65v40.583c0 1.769-1.383 3.202-3.09 3.202H561.09c-1.706 0-3.089-1.433-3.089-3.202V62.711c0-1.769 1.383-3.202 3.09-3.202zm-68.259 85.973l12.358-26.754c.39-.842.396-1.82.017-2.667l-23.922-53.58c-.935-2.097.563-4.481 2.816-4.481h14.34c1.249 0 2.374.766 2.855 1.945l5.968 14.6c2.919 7.188 5.703 14.239 8.354 21.155h.264a1037.939 1037.939 0 0 1 8.885-21.561l6.083-14.241A3.096 3.096 0 0 1 533.684 58h13.217c2.245 0 3.743 2.367 2.824 4.462l-37.607 85.67a3.095 3.095 0 0 1-2.825 1.868h-13.665c-2.27 0-3.768-2.418-2.798-4.518zM110.794 86.954c.71.024 1.366.335 1.845.88 11.508 13.021 14.435 31.078 7.642 47.124A42.607 42.607 0 0 1 80.98 161H9.212C4.134 161 0 156.732 0 151.485V9.515C0 4.27 4.134 0 9.212 0h72.687c17.54 0 32.522 10.452 39.09 27.272 6.325 16.204 2.502 34.846-9.744 47.496l-11.803 13.1-26.753 27.688c-4.262 4.41-9.934 6.84-15.969 6.84l-2.347-.266c-5.249-.6-10.067-2.922-13.568-6.531-4.277-4.408-6.634-10.295-6.634-16.572 0-6.256 2.34-12.126 6.59-16.53l1.959-2.024-1.901-1.961c-4.382-4.543-6.78-10.842-6.585-17.282.201-6.521 2.915-12.492 7.645-16.813 4.104-3.747 9.576-5.81 15.409-5.81h.13c5.545 0 10.969 2.323 14.879 6.379 4.155 4.307 8.306 8.613 12.454 12.922l5.094 5.293c.778.809 1.53 1.595 2.84 2.951.488.504.757 1.175.754 1.89a2.685 2.685 0 0 1-.76 1.881l-3.684 3.771a2.522 2.522 0 0 1-3.637-.012l-6.832-7.074c-4.382-4.53-8.761-9.06-13.138-13.6-2.334-2.417-5.393-3.75-8.619-3.75-3.228 0-6.29 1.333-8.623 3.75a12.884 12.884 0 0 0 0 17.943l5.54 5.778c.836.873 3.102 3.211 3.102 3.211l.385.398-.364.418c-.091.103-2.226 2.552-3.12 3.488l-5.613 5.827c-4.749 4.806-4.704 12.558.095 18.044 2.264 2.34 5.295 3.643 8.516 3.646 3.25 0 6.328-1.34 8.675-3.767l26.744-27.653 6.6-7.093 5.982-6.182c9.873-10.198 12.298-24.688 6.332-37.815-5.253-11.552-16.85-19.017-29.549-19.017H13.654c-2.064 0-3.746 1.735-3.746 3.87v132.792c0 2.135 1.682 3.872 3.746 3.872h68.032c13.438 0 24.903-8.012 29.923-20.905 4.531-11.646 2.062-25.386-6.29-35.005a2.703 2.703 0 0 1 .126-3.672l3.48-3.487c.502-.502 1.175-.745 1.869-.745z"
        fill="#5400DC"
        fillRule="evenodd"
      />
</svg>
